<svg width="1214" height="160" viewBox="0 0 1214 160" fill="none" xmlns="http://www.w3.org/2000/svg">
<path fill-rule="evenodd" clip-rule="evenodd" d="M1207.58 157.265H1103.65V154.972C1106.11 154.972 1108.07 154.862 1109.52 154.641C1110.97 154.42 1112.09 153.923 1112.87 153.149C1113.65 152.376 1114.13 151.298 1114.38 149.834C1114.6 148.398 1114.71 146.381 1114.71 143.812V16.4365C1114.71 14.0055 1114.6 12.0442 1114.38 10.4972C1114.16 8.9779 1113.65 7.8453 1112.87 7.07182C1112.09 6.29834 1111 5.82873 1109.52 5.58011C1108.07 5.35912 1106.11 5.24862 1103.65 5.24862V2.98343H1146.05V5.24862C1143.59 5.24862 1141.58 5.35912 1140.07 5.58011C1138.54 5.80111 1137.34 6.29834 1136.5 7.07182C1135.66 7.8453 1135.07 8.92265 1134.77 10.3867C1134.46 11.8232 1134.32 13.8398 1134.32 16.4365V141.989C1134.32 143.343 1134.74 144.392 1135.58 145.083C1136.41 145.746 1137.42 146.188 1138.56 146.326C1139.71 146.492 1140.94 146.519 1142.25 146.436C1143.54 146.354 1144.65 146.326 1145.6 146.326H1179.23C1183.39 146.326 1187.08 146.188 1190.29 145.884C1193.5 145.58 1196.35 144.862 1198.81 143.702C1201.26 142.569 1203.44 140.801 1205.37 138.453C1207.3 136.105 1209.17 132.956 1211.01 129.006L1214 129.696L1207.55 157.265H1207.58ZM1059.36 130.138L1053.61 157.265H948.539V154.972C953.287 154.972 956.303 154.337 957.532 153.039C958.761 151.74 959.375 148.674 959.375 143.812V16.4365C959.375 11.5746 958.761 8.50829 957.532 7.20994C956.303 5.9116 953.314 5.27624 948.539 5.27624V3.01105H1051.32L1051.54 26.4641H1048.33C1047.55 20.6906 1045.76 17.1547 1042.91 15.8564C1040.06 14.558 1035.96 13.9227 1030.59 13.9227H984.036C981.439 13.9227 979.93 14.1989 979.539 14.7238C979.148 15.2486 978.953 16.7403 978.953 19.1713V71.3536H1025.73C1028.19 71.3536 1030.34 71.2431 1032.18 70.9945C1034.03 70.7735 1035.54 70.2762 1036.68 69.5304C1037.83 68.7569 1038.72 67.6243 1039.33 66.105C1039.95 64.5856 1040.4 62.5414 1040.7 59.9448H1043.69V94.3646H1040.7C1040.4 91.6298 1039.92 89.5028 1039.33 87.9834C1038.72 86.4641 1037.83 85.2762 1036.68 84.4475C1035.54 83.6188 1034.08 83.0663 1032.3 82.8453C1030.54 82.6243 1028.33 82.5138 1025.73 82.5138H978.953V141.989C978.953 143.343 979.372 144.392 980.21 145.083C981.048 145.746 982.053 146.188 983.198 146.326C984.343 146.492 985.572 146.519 986.885 146.436C988.197 146.354 989.314 146.326 990.236 146.326H1028.25C1031.93 146.326 1035.12 146.133 1037.8 145.746C1040.48 145.359 1042.91 144.586 1045.06 143.343C1047.21 142.127 1049.14 140.497 1050.81 138.453C1052.52 136.409 1054.11 133.646 1055.67 130.138H1059.36ZM850.509 158.867H841.069L781.61 15.0829C780.381 12.2099 778.873 9.8895 777.113 8.14917C775.354 6.40884 772.84 5.44199 769.628 5.30387V3.03867H810.404V5.30387C808.868 5.30387 807.415 5.33149 806.019 5.41437C804.623 5.49724 803.478 5.80111 802.556 6.32597C801.634 6.85083 801.048 7.65193 800.824 8.72928C800.601 9.77901 800.852 11.2431 801.634 13.0663L848.638 130.193L891.955 18.0663C893.659 13.8122 894.022 10.6906 893.1 8.72928C892.179 6.76796 889.246 5.60774 884.331 5.30387V3.03867H917.51V5.30387C914.438 5.30387 912.176 6.21547 910.723 8.03867C909.271 9.86188 907.986 12.0718 906.925 14.6409L850.481 158.895L850.509 158.867ZM702.935 2.98343H739.577V5.24862H736.114C733.796 5.24862 732.036 5.88398 730.807 7.18232C729.579 8.48066 728.741 10.0276 728.266 11.8508C727.791 13.674 727.568 15.663 727.568 17.7901V103.232C727.568 121.63 722.457 135.663 712.263 145.387C702.041 155.111 687.714 159.972 669.281 159.972C650.848 159.972 636.325 155.028 626.187 145.166C616.049 135.304 610.994 121.16 610.994 102.79V16.4365C610.994 13.0939 610.603 10.3867 609.849 8.34254C609.067 6.29834 606.693 5.27624 602.699 5.27624H599.236V3.01105H642.106V5.27624C639.649 5.27624 637.694 5.35912 636.241 5.49724C634.789 5.63536 633.644 6.10497 632.778 6.85083C631.94 7.62431 631.354 8.75691 631.047 10.2762C630.739 11.7956 630.6 13.8398 630.6 16.4365V103.26C630.6 117.238 633.867 128.287 640.403 136.409C646.938 144.53 657.579 148.591 672.325 148.591C685.842 148.591 696.344 144.807 703.773 137.21C711.23 129.613 714.944 119.199 714.944 105.994V15.7459C714.944 13.4807 714.609 11.5746 713.911 10.0552C713.212 8.53591 712.039 7.34807 710.336 6.51934C708.632 5.69061 706.174 5.27624 702.963 5.27624V3.01105L702.935 2.98343ZM524.527 2.98343H561.867V5.24862C558.628 5.24862 556.17 5.58011 554.494 6.27072C552.791 6.96133 551.618 7.98343 550.919 9.33702C550.221 10.7182 549.858 12.4586 549.774 14.5856C549.691 16.7127 549.663 19.2265 549.663 22.0994V158.343H537.905L445.517 27.5414V138.508C445.517 141.381 445.545 143.867 445.629 145.912C445.712 147.956 446.075 149.669 446.774 151.05C447.472 152.403 448.645 153.398 450.349 154.006C452.024 154.613 454.426 154.917 457.498 154.917V157.21H420.409V154.917C423.621 154.917 426.079 154.613 427.782 154.006C429.458 153.398 430.687 152.459 431.469 151.16C432.223 149.862 432.67 148.204 432.726 146.133C432.809 144.088 432.837 141.547 432.837 138.508V14.8343C431.916 12.8453 431.162 11.2155 430.547 9.94475C429.933 8.64641 429.235 7.65193 428.48 6.98895C427.698 6.29834 426.749 5.85635 425.604 5.63536C424.459 5.41436 422.727 5.30387 420.409 5.30387V3.03867H450.823C464.955 24.1436 479.31 44.8895 493.917 65.2486C508.524 85.6077 522.879 106.354 537.011 127.459V22.1271C537.011 19.0884 536.983 16.4917 536.899 14.3646C536.815 12.2376 536.452 10.4972 535.754 9.11602C535.056 7.76243 533.827 6.76796 532.068 6.16022C530.308 5.55249 527.795 5.24862 524.583 5.24862V2.98343H524.527ZM370.389 157.265H325.675V154.972C328.273 154.972 330.395 154.89 332.015 154.751C333.635 154.613 334.892 154.199 335.813 153.508C336.735 152.818 337.349 151.74 337.657 150.221C337.964 148.702 338.104 146.575 338.104 143.84V16.4365C338.104 13.7017 337.964 11.5746 337.657 10.0552C337.349 8.53591 336.735 7.43094 335.813 6.74033C334.892 6.04972 333.635 5.63536 332.015 5.49724C330.395 5.33149 328.273 5.27624 325.675 5.27624V3.01105H370.389V5.27624C367.792 5.27624 365.669 5.35912 364.049 5.49724C362.429 5.63536 361.173 6.07735 360.251 6.74033C359.329 7.43094 358.715 8.53591 358.408 10.0552C358.1 11.5746 357.933 13.7017 357.933 16.4365V143.812C357.933 146.547 358.1 148.674 358.408 150.193C358.715 151.713 359.329 152.818 360.251 153.481C361.173 154.171 362.429 154.586 364.049 154.724C365.669 154.89 367.764 154.945 370.389 154.945V157.238V157.265ZM288.782 129.696L282.33 157.265H178.408V154.972C180.866 154.972 182.821 154.862 184.273 154.641C185.725 154.42 186.842 153.923 187.624 153.149C188.378 152.376 188.909 151.298 189.132 149.834C189.356 148.398 189.468 146.381 189.468 143.812V16.4365C189.468 14.0055 189.356 12.0442 189.132 10.4972C188.909 8.9779 188.406 7.8453 187.624 7.07182C186.842 6.29834 185.725 5.82873 184.273 5.58011C182.821 5.35912 180.838 5.24862 178.408 5.24862V2.98343H220.803V5.24862C218.346 5.24862 216.335 5.35912 214.799 5.58011C213.263 5.80111 212.062 6.29834 211.224 7.07182C210.386 7.8453 209.8 8.92265 209.492 10.3867C209.185 11.8232 209.045 13.8398 209.045 16.4365V141.989C209.045 143.343 209.464 144.392 210.302 145.083C211.14 145.746 212.146 146.188 213.291 146.326C214.436 146.492 215.665 146.519 216.977 146.436C218.29 146.354 219.407 146.326 220.329 146.326H253.983C258.116 146.326 261.803 146.188 265.042 145.884C268.282 145.58 271.103 144.862 273.561 143.702C276.018 142.569 278.197 140.801 280.124 138.453C282.051 136.105 283.922 132.956 285.765 129.006L288.754 129.696H288.782ZM78.1442 160C65.8556 160 54.9076 158.066 45.3002 154.199C35.6927 150.332 27.5097 144.89 20.7509 137.901C13.9922 130.912 8.85336 122.514 5.30643 112.707C1.7595 102.901 0 92.0718 0 80.221C0 68.3702 1.84329 58.2321 5.52986 48.4254C9.21644 38.6188 14.467 30.1105 21.3095 22.9006C28.152 15.6906 36.363 10.0552 45.9705 6.04972C55.5779 2.01657 66.2745 0 78.1163 0C86.2435 0 94.3986 0.911602 102.554 2.73481C103.475 3.03867 104.676 3.39779 106.129 3.75691C107.581 4.14365 109.089 4.55801 110.625 5C112.161 5.46961 113.614 5.82873 115.01 6.1326C116.406 6.43646 117.551 6.60221 118.473 6.60221C121.378 6.60221 123.221 5.24862 124.003 2.51381H126.544V10.9392C126.544 13.9779 126.517 17.0994 126.433 20.2762C126.349 23.453 126.209 26.5746 125.958 29.6133C125.735 32.6519 125.288 35.3039 124.701 37.5967C119.311 28.9227 113.334 22.3757 106.715 17.8729C100.096 13.3978 91.4941 11.1602 80.9091 11.1602C70.3242 11.1602 61.6943 13.0111 54.1815 16.7403C46.6407 20.4696 40.4685 25.442 35.6369 31.6851C30.8052 37.9006 27.1745 45.1934 24.8006 53.5635C22.4267 61.9061 21.2257 70.7459 21.2257 80C21.2257 89.2542 22.4546 98.5359 24.9123 106.878C27.37 115.249 31.0845 122.486 36.0837 128.646C41.083 134.807 47.3669 139.669 54.9914 143.232C62.588 146.796 71.6089 148.591 82.0542 148.591C85.7408 148.591 89.7346 148.508 94.0356 148.37C98.3366 148.232 102.582 147.79 106.827 147.127C111.044 146.436 115.094 145.387 118.92 143.95C122.774 142.514 126.209 140.497 129.281 137.901L130.203 141.768C122.83 148.287 114.731 152.983 105.877 155.773C97.0519 158.591 87.8075 160 78.1163 160" fill="white"/>
</svg>
