<svg width="36" height="36" viewBox="0 0 36 36" fill="none" xmlns="http://www.w3.org/2000/svg">
<g clip-path="url(#clip0_548_4146)">
<path fill-rule="evenodd" clip-rule="evenodd" d="M15.916 24.0307C13.8571 24.6488 12.1072 24.4734 11.7898 22.2934C11.5308 20.5059 12.483 17.7537 15.2311 14.5254C17.954 11.3263 21.5165 9.76435 23.5462 9.55136C25.5633 9.33837 25.8807 9.99823 25.4965 10.7416C25.1791 11.3514 24.4274 11.8859 24.4274 11.8859C24.4274 11.8859 25.6301 11.2135 26.2524 10.633C27.6807 9.30913 26.8246 8.49057 24.774 8.36528C23.3248 8.27758 19.8083 8.5031 15.7531 11.7565C11.7772 14.9514 9.50114 18.7268 9.31738 21.504C8.96239 26.8247 13.0636 27.234 18.3132 23.9889C21.3369 22.1179 23.3958 19.6539 23.3958 19.6539C23.3958 19.6539 18.9898 23.1077 15.916 24.0265" fill="white"/>
<path d="M35.2912 18.0002C35.2912 27.5498 27.5496 35.2914 18 35.2914C8.45033 35.2914 0.708801 27.5498 0.708801 18.0002C0.708801 8.45051 8.45033 0.708984 18 0.708984C27.5496 0.708984 35.2912 8.45051 35.2912 18.0002Z" stroke="white"/>
</g>
<defs>
<clipPath id="clip0_548_4146">
<rect width="36" height="36" fill="white"/>
</clipPath>
</defs>
</svg>
